<?xml version="1.0" encoding="UTF-8" standalone="no"?>
<!-- Created with Inkscape (http://www.inkscape.org/) -->

<svg
   xmlns:dc="http://purl.org/dc/elements/1.1/"
   xmlns:cc="http://creativecommons.org/ns#"
   xmlns:rdf="http://www.w3.org/1999/02/22-rdf-syntax-ns#"
   xmlns:svg="http://www.w3.org/2000/svg"
   xmlns="http://www.w3.org/2000/svg"
   xmlns:sodipodi="http://sodipodi.sourceforge.net/DTD/sodipodi-0.dtd"
   xmlns:inkscape="http://www.inkscape.org/namespaces/inkscape"
   width="1000"
   height="1000"
   id="svg2"
   version="1.1"
   inkscape:version="0.92.2 2405546, 2018-03-11"
   sodipodi:docname="ai-color.svg">
  <defs
     id="defs4">
    <inkscape:path-effect
       effect="spiro"
       id="path-effect4127"
       is_visible="true" />
    <inkscape:path-effect
       effect="spiro"
       id="path-effect4123"
       is_visible="true" />
    <inkscape:path-effect
       effect="spiro"
       id="path-effect4119"
       is_visible="true" />
    <inkscape:path-effect
       effect="spiro"
       id="path-effect4115"
       is_visible="true" />
    <inkscape:path-effect
       effect="spiro"
       id="path-effect4111"
       is_visible="true" />
    <inkscape:path-effect
       effect="spiro"
       id="path-effect4107"
       is_visible="true" />
    <inkscape:path-effect
       is_visible="true"
       id="path-effect3759"
       effect="spiro" />
    <inkscape:path-effect
       effect="spiro"
       id="path-effect2987"
       is_visible="true" />
  </defs>
  <sodipodi:namedview
     id="base"
     pagecolor="#ffffff"
     bordercolor="#666666"
     borderopacity="1.0"
     inkscape:pageopacity="0.0"
     inkscape:pageshadow="2"
     inkscape:zoom="0.41876435"
     inkscape:cx="146.90431"
     inkscape:cy="450"
     inkscape:document-units="px"
     inkscape:current-layer="layer1"
     showgrid="false"
     inkscape:showpageshadow="false"
     inkscape:window-width="1366"
     inkscape:window-height="708"
     inkscape:window-x="0"
     inkscape:window-y="0"
     inkscape:window-maximized="1" />
  <metadata
     id="metadata7">
    <rdf:RDF>
      <cc:Work
         rdf:about="">
        <dc:format>image/svg+xml</dc:format>
        <dc:type
           rdf:resource="http://purl.org/dc/dcmitype/StillImage" />
        <dc:title></dc:title>
      </cc:Work>
    </rdf:RDF>
  </metadata>
  <g
     inkscape:label="Layer 1"
     inkscape:groupmode="layer"
     id="layer1"
     transform="translate(0,-52.36218)">
    <path
       inkscape:connector-curvature="0"
       d="m 358.8803,289.01649 c -2.40634,-9.88117 -6.29214,-19.25157 -11.59357,-27.95842 l 9.45846,-13.24167 -29.70735,-29.70779 -13.23463,9.45318 c -8.69319,-5.29791 -18.04906,-9.18371 -27.91658,-11.59533 l -2.67669,-16.06323 h -42.01247 l -2.67713,16.06279 c -9.84727,2.40634 -19.18949,6.28377 -27.86947,11.56759 l -13.31741,-9.51263 -29.70735,29.70736 9.50689,13.30948 c -5.28029,8.66765 -9.15772,17.99446 -11.56934,27.82852 l -16.14293,2.6899 v 42.01247 l 16.11166,2.6855 c 2.39797,9.83581 6.26396,19.16879 11.53237,27.84217 l -9.52584,13.33634 29.70736,29.70779 13.29055,-9.49325 c 8.67337,5.29482 18.00987,9.18415 27.85537,11.60414 l 2.68198,16.09449 h 42.01247 l 2.67185,-16.03197 c 9.86884,-2.39753 19.23043,-6.27144 27.93111,-11.55834 l 13.26105,9.47256 29.70735,-29.70692 -9.43953,-13.21569 c 5.31287,-8.69936 9.21057,-18.06448 11.63099,-27.94433 l 16.01392,-2.66832 v -42.01247 z m 2.77356,33.48616 -13.88894,2.31475 -0.8824,4.48859 c -2.22493,11.31485 -6.63647,21.91329 -13.11266,31.49945 l -2.56837,3.80214 8.20355,11.48569 -13.88189,13.88146 -11.51299,-8.22382 -3.79862,2.55341 c -9.59276,6.44757 -20.18857,10.83181 -31.49372,13.0312 l -4.50005,0.87491 -2.32135,13.92593 h -19.63201 l -2.32708,-13.96116 -4.48419,-0.88548 c -11.28358,-2.22844 -21.85429,-6.6325 -31.41843,-13.09108 l -3.80214,-2.56793 -11.55878,8.25683 -13.8819,-13.88189 8.27621,-11.58652 -2.55208,-3.79862 c -6.42952,-9.56943 -10.80672,-20.13837 -13.00963,-31.41315 l -0.87843,-4.4952 -13.9977,-2.33368 v -19.63201 l 14.01531,-2.33544 0.88328,-4.48728 c 2.2192,-11.27257 6.61093,-21.8358 13.05366,-31.39641 l 2.56133,-3.80083 -8.26477,-11.57066 13.8819,-13.88146 11.57551,8.26785 3.79994,-2.55869 c 9.57339,-6.44581 20.14982,-10.83534 31.43516,-13.04749 l 4.49212,-0.8802 2.324,-13.9431 h 19.63201 l 2.32399,13.9431 4.49212,0.88064 c 11.30384,2.21567 21.89436,6.61489 31.47699,13.07479 l 3.80083,2.56221 11.49669,-8.21193 13.8819,13.8819 -8.21545,11.5011 2.55957,3.79994 c 6.46342,9.59672 10.86043,20.20045 13.06863,31.51706 l 0.87755,4.49652 13.87133,2.31255 z"
       id="path3991"
       style="stroke-width:0.44031769;fill:#216778;stroke:#216778;fill-opacity:1;stroke-opacity:1" />
    <g
       transform="matrix(0.28174103,0,0,0.28174103,102.04915,396.49338)"
       id="g4079"
       style="stroke:#c87137;stroke-width:10.64807606;stroke-miterlimit:4;stroke-dasharray:none;stroke-opacity:1;fill:#c87137;fill-opacity:1">
      <g
         id="g4081"
         style="stroke:#c87137;stroke-width:10.64807606;stroke-miterlimit:4;stroke-dasharray:none;stroke-opacity:1;fill:#c87137;fill-opacity:1">
        <path
           id="path4083"
           d="m 475.701,202.384 c -5.465,-22.441 -14.29,-43.722 -26.33,-63.496 L 470.852,108.815 403.384,41.346 373.327,62.815 C 353.584,50.783 332.336,41.958 309.926,36.481 L 303.847,0 h -95.414 l -6.08,36.48 c -22.364,5.465 -43.581,14.271 -63.294,26.271 L 108.814,41.147 41.346,108.615 62.937,138.842 C 50.945,158.527 42.139,179.709 36.662,202.043 L 0,208.152 v 95.414 l 36.591,6.099 c 5.446,22.338 14.226,43.534 26.191,63.232 l -21.634,30.288 67.468,67.469 30.184,-21.56 c 19.698,12.025 40.902,20.858 63.262,26.354 L 208.153,512 h 95.414 l 6.068,-36.41 c 22.413,-5.445 43.674,-14.243 63.434,-26.25 l 30.117,21.513 67.468,-67.467 -21.438,-30.014 c 12.066,-19.757 20.918,-41.026 26.415,-63.464 L 512,303.848 v -95.414 z m 6.299,76.05 -31.543,5.257 -2.004,10.194 c -5.053,25.697 -15.072,49.767 -29.78,71.538 l -5.833,8.635 18.631,26.085 -31.527,31.526 -26.147,-18.677 -8.627,5.799 c -21.786,14.643 -45.85,24.6 -71.525,29.595 l -10.22,1.987 -5.272,31.627 h -44.586 l -5.285,-31.707 -10.184,-2.011 c -25.626,-5.061 -49.633,-15.063 -71.354,-29.731 l -8.635,-5.832 -26.251,18.752 -31.527,-31.527 18.796,-26.314 -5.796,-8.627 C 78.729,343.27 68.788,319.267 63.785,293.661 L 61.79,283.452 30,278.152 v -44.586 l 31.83,-5.304 2.006,-10.191 C 68.876,192.47 78.85,168.48 93.482,146.767 l 5.817,-8.632 -18.77,-26.278 31.527,-31.526 26.289,18.777 8.63,-5.811 C 168.717,78.658 192.737,68.689 218.367,63.665 L 228.569,61.666 233.847,30 h 44.586 l 5.278,31.666 10.202,2 c 25.672,5.032 49.724,15.023 71.487,29.694 l 8.632,5.819 26.11,-18.65 31.527,31.527 -18.658,26.12 5.813,8.63 c 14.679,21.795 24.665,45.877 29.68,71.578 l 1.993,10.212 31.503,5.252 z"
           inkscape:connector-curvature="0"
           style="stroke:#c87137;stroke-width:10.64807606;stroke-miterlimit:4;stroke-dasharray:none;stroke-opacity:1;fill:#c87137;fill-opacity:1" />
      </g>
    </g>
    <path
       style="fill:#c87137;fill-opacity:1;stroke:#000000;stroke-width:15;stroke-linecap:butt;stroke-linejoin:miter;stroke-miterlimit:4;stroke-dasharray:none;stroke-opacity:1"
       d="m 468.6468,906.39616 -0.56514,-559.24555 c -0.0584,-19.25504 -7.93082,-38.3738 -21.44765,-52.08713 -13.72182,-13.92129 -32.70042,-22.01236 -52.08713,-24.51159 -12.90035,-1.66305 -26.20442,-0.95483 -38.5921,3.01131 -12.38767,3.96614 -23.82242,11.28847 -31.8787,21.50028 -6.90781,8.75605 -11.21935,19.5349 -12.2558,30.6395 -25.28932,-3.69742 -51.82588,1.83103 -73.53477,15.31973 -13.61928,8.46227 -25.37162,20.00397 -33.70345,33.70344 -10.56052,17.36396 -15.43599,37.89217 -15.31974,58.21502 0.11004,19.23629 4.60989,38.43456 13.05923,55.71621 -13.23586,4.92419 -25.74647,11.79294 -37.00568,20.31738 -13.69745,10.37045 -25.60997,23.30818 -33.70344,38.46278 -9.55052,17.88284 -13.54629,38.54793 -12.25579,58.78016 1.46276,22.93285 9.79574,45.56332 24.51159,63.21266 12.05926,14.46318 28.27758,25.41802 46.19753,31.20462 -11.6653,20.63201 -14.72198,45.96062 -8.2999,68.77543 3.97615,14.12549 11.40676,27.1694 20.88252,38.37427 10.60018,12.53447 23.83317,22.87741 38.70106,29.83604 16.35258,7.65352 34.62899,11.15376 52.65227,10.0838 -1.55354,16.23618 0.96369,32.8461 7.25816,47.89292 7.101,16.97481 18.9738,31.86776 33.70343,42.89529 21.13124,15.82018 48.84158,23.53012 74.66504,18.05688 26.31965,-5.5784 49.26671,-25.07864 59.01846,-50.15345 z"
       id="path2985"
       inkscape:path-effect="#path-effect2987"
       inkscape:original-d="m 468.6468,906.39616 -0.56514,-559.24555 c 0,0 -8.50139,-38.48722 -21.44765,-52.08713 -13.23041,-13.8984 -32.92483,-23.50363 -52.08713,-24.51159 -24.83632,-1.30643 -52.48678,7.33239 -70.4708,24.51159 -7.95408,7.59809 -12.2558,30.6395 -12.2558,30.6395 0,0 -51.50694,3.41721 -73.53477,15.31973 -13.9779,7.55284 -25.79027,19.92632 -33.70345,33.70344 -9.99393,17.39979 -15.04795,38.15118 -15.31974,58.21502 -0.25839,19.07365 13.05923,55.71621 13.05923,55.71621 0,0 -26.03425,11.50536 -37.00568,20.31738 -13.29059,10.67474 -26.09665,23.20741 -33.70344,38.46278 -8.93123,17.91155 -13.89871,38.83296 -12.25579,58.78016 1.85509,22.52329 10.41881,45.54536 24.51159,63.21266 11.58807,14.52732 46.19753,31.20462 46.19753,31.20462 -2.20256,22.65941 -12.64125,46.09572 -8.2999,68.77543 2.73789,14.30308 11.4321,27.29443 20.88252,38.37427 10.57062,12.39319 23.8478,23.14953 38.70106,29.83604 16.29476,7.33542 52.65227,10.0838 52.65227,10.0838 0,0 0.84882,33.0729 7.25816,47.89292 7.21807,16.69006 18.40464,33.06646 33.70343,42.89529 21.54297,13.84045 49.75438,23.98277 74.66504,18.05688 25.11587,-5.97473 59.01846,-50.15345 59.01846,-50.15345 z"
       inkscape:connector-curvature="0"
       sodipodi:nodetypes="ccaaacaaacaaaacaaacaaac" />
    <path
       sodipodi:nodetypes="ccaaacaaacaaaacaaacaaac"
       inkscape:connector-curvature="0"
       inkscape:original-d="m 528.46859,906.39616 0.56514,-559.24555 c 0,0 8.50138,-38.48722 21.44764,-52.08713 13.23042,-13.8984 32.92484,-23.50363 52.08713,-24.51159 24.83633,-1.30643 52.48678,7.33239 70.47081,24.51159 7.95407,7.59809 12.25579,30.6395 12.25579,30.6395 0,0 51.50695,3.41721 73.53478,15.31973 13.9779,7.55284 25.79027,19.92632 33.70344,33.70344 9.99393,17.39979 16.06543,38.16322 15.31975,58.21502 -0.63487,17.07193 -16.68832,48.45805 -16.68832,48.45805 0,0 28.36868,16.73589 40.63477,27.57554 12.77364,11.28821 26.09665,23.20741 33.70343,38.46278 8.93124,17.91155 13.89871,38.83296 12.25579,58.78016 -1.85509,22.52329 -10.4188,45.54536 -24.51158,63.21266 -11.58807,14.52732 -46.19753,31.20462 -46.19753,31.20462 2.20255,22.65941 12.64125,46.09572 8.2999,68.77543 -2.73789,14.30308 -11.4321,27.29443 -20.88253,38.37427 -10.57061,12.39319 -23.84779,23.14953 -38.70105,29.83604 -16.29476,7.33542 -52.65228,10.0838 -52.65228,10.0838 0,0 -0.84882,33.0729 -7.25815,47.89292 -7.21807,16.69006 -18.40464,33.06646 -33.70343,42.89529 -21.54297,13.84045 -49.75438,23.98277 -74.66504,18.05688 -25.11587,-5.97473 -59.01846,-50.15345 -59.01846,-50.15345 z"
       inkscape:path-effect="#path-effect3759"
       id="path3757"
       d="m 528.46859,906.39616 0.56514,-559.24555 c 0.0584,-19.25504 7.93081,-38.3738 21.44764,-52.08713 13.72181,-13.92129 32.70042,-22.01236 52.08713,-24.51159 12.90035,-1.66305 26.20443,-0.95483 38.5921,3.01131 12.38768,3.96613 23.82243,11.28847 31.87871,21.50028 6.90781,8.75606 11.21934,19.5349 12.25579,30.6395 25.2856,-3.82354 51.87967,1.71688 73.53478,15.31973 13.56846,8.52315 25.20488,20.11956 33.70344,33.70344 10.81221,17.28197 16.46067,37.86142 15.31975,58.21502 -0.96834,17.27491 -6.81438,34.25011 -16.68832,48.45805 14.39127,7.85382 28.02063,17.10297 40.63477,27.57554 13.19355,10.95362 25.42593,23.44497 33.70343,38.46278 9.79415,17.76945 13.62541,38.53657 12.25579,58.78016 -1.55076,22.92095 -9.82138,45.54991 -24.51158,63.21266 -12.04285,14.47971 -28.26838,25.43942 -46.19753,31.20462 11.6653,20.63201 14.72199,45.96062 8.2999,68.77543 -3.97615,14.12549 -11.40677,27.1694 -20.88253,38.37427 -10.60018,12.53447 -23.83316,22.8774 -38.70105,29.83604 -16.35259,7.65352 -34.629,11.15376 -52.65228,10.0838 1.55355,16.23618 -0.96368,32.8461 -7.25815,47.89292 -7.101,16.97481 -18.9738,31.86776 -33.70343,42.89529 -21.13124,15.82018 -48.84158,23.53012 -74.66504,18.05688 -26.31965,-5.5784 -49.26671,-25.07864 -59.01846,-50.15345 z"
       style="fill:#216778;fill-opacity:1;stroke:#000000;stroke-width:15;stroke-linecap:butt;stroke-linejoin:miter;stroke-miterlimit:4;stroke-dasharray:none;stroke-opacity:1" />
    <g
       id="g3993"
       transform="translate(-830.27862,373.24201)" />
    <g
       id="g3995"
       transform="translate(-830.27862,373.24201)" />
    <g
       id="g3997"
       transform="translate(-830.27862,373.24201)" />
    <g
       id="g3999"
       transform="translate(-830.27862,373.24201)" />
    <g
       id="g4001"
       transform="translate(-830.27862,373.24201)" />
    <g
       id="g4003"
       transform="translate(-830.27862,373.24201)" />
    <g
       id="g4005"
       transform="translate(-830.27862,373.24201)" />
    <g
       id="g4007"
       transform="translate(-830.27862,373.24201)" />
    <g
       id="g4009"
       transform="translate(-830.27862,373.24201)" />
    <g
       id="g4011"
       transform="translate(-830.27862,373.24201)" />
    <g
       id="g4013"
       transform="translate(-830.27862,373.24201)" />
    <g
       id="g4015"
       transform="translate(-830.27862,373.24201)" />
    <g
       id="g4017"
       transform="translate(-830.27862,373.24201)" />
    <g
       id="g4019"
       transform="translate(-830.27862,373.24201)" />
    <g
       id="g4021"
       transform="translate(-830.27862,373.24201)" />
    <path
       style="fill:#afc6e9;stroke:#bcd35f;stroke-width:10;stroke-linecap:butt;stroke-linejoin:miter;stroke-miterlimit:4;stroke-dasharray:none;stroke-opacity:1"
       d="M 606.20686,386.21357 327.59523,516.23234"
       id="path4117"
       inkscape:path-effect="#path-effect4119"
       inkscape:original-d="M 606.20686,386.21357 327.59523,516.23234"
       inkscape:connector-curvature="0" />
    <circle
       r="14.038743"
       cy="382.8923"
       cx="616.09833"
       style="fill:none;stroke:#bcd35f;stroke-width:7.04973841;stroke-linecap:butt;stroke-linejoin:round;stroke-miterlimit:4;stroke-dasharray:none;stroke-opacity:1"
       id="path4085" />
    <path
       style="fill:none;stroke:#bcd35f;stroke-width:13;stroke-linecap:butt;stroke-linejoin:miter;stroke-miterlimit:4;stroke-dasharray:none;stroke-opacity:1"
       d="M 325.90668,528.05222 682.19186,686.77643"
       id="path4121"
       inkscape:path-effect="#path-effect4123"
       inkscape:original-d="M 325.90668,528.05222 682.19186,686.77643"
       inkscape:connector-curvature="0" />
    <circle
       r="19.205881"
       cy="519.39502"
       cx="308.49725"
       id="path4095"
       style="fill:none;stroke:#bcd35f;stroke-width:9.64448452;stroke-linecap:butt;stroke-linejoin:round;stroke-miterlimit:4;stroke-dasharray:none;stroke-opacity:1" />
    <path
       style="fill:none;stroke:#bcd35f;stroke-width:15;stroke-linecap:butt;stroke-linejoin:miter;stroke-miterlimit:4;stroke-dasharray:none;stroke-opacity:1"
       d="M 682.19186,700.28487 280.31568,970.45372"
       id="path4125"
       inkscape:path-effect="#path-effect4127"
       inkscape:original-d="M 682.19186,700.28487 280.31568,970.45372"
       inkscape:connector-curvature="0" />
    <circle
       r="21.905233"
       cy="981.06714"
       cx="265.10394"
       style="fill:none;stroke:#bcd35f;stroke-width:11;stroke-linecap:butt;stroke-linejoin:round;stroke-miterlimit:4;stroke-dasharray:none;stroke-opacity:1"
       id="path4099" />
    <path
       style="fill:#214478;stroke:#1c1c24;stroke-width:10;stroke-linecap:butt;stroke-linejoin:miter;stroke-miterlimit:4;stroke-dasharray:none;stroke-opacity:1"
       d="M 389.2275,387.05785 662.77347,501.03533"
       id="path4105"
       inkscape:path-effect="#path-effect4107"
       inkscape:original-d="M 389.2275,387.05785 662.77347,501.03533"
       inkscape:connector-curvature="0"
       sodipodi:nodetypes="cc" />
    <path
       style="fill:none;stroke:#1c1c24;stroke-width:13;stroke-linecap:butt;stroke-linejoin:miter;stroke-miterlimit:4;stroke-dasharray:none;stroke-opacity:1"
       d="M 661.92919,512.85523 297.20124,687.6207"
       id="path4109"
       inkscape:path-effect="#path-effect4111"
       inkscape:original-d="M 661.92919,512.85523 297.20124,687.6207"
       inkscape:connector-curvature="0" />
    <path
       style="fill:none;stroke:#1c1c24;stroke-width:15;stroke-linecap:butt;stroke-linejoin:miter;stroke-miterlimit:4;stroke-dasharray:none;stroke-opacity:1"
       d="m 298.04551,700.28487 424.67167,260.8818"
       id="path4113"
       inkscape:path-effect="#path-effect4115"
       inkscape:original-d="m 298.04551,700.28487 424.67167,260.8818"
       inkscape:connector-curvature="0" />
    <circle
       r="17.856205"
       cy="507.84311"
       cx="678.18573"
       id="path4087"
       style="fill:none;stroke:#1c1c24;stroke-width:8.9667263;stroke-linecap:butt;stroke-linejoin:round;stroke-miterlimit:4;stroke-dasharray:none;stroke-opacity:1" />
    <circle
       r="14.038743"
       cy="382.8923"
       cx="377.74863"
       style="fill:none;stroke:#1c1c24;stroke-width:7.04973841;stroke-linecap:butt;stroke-linejoin:round;stroke-miterlimit:4;stroke-dasharray:none;stroke-opacity:1"
       id="path4093" />
    <circle
       r="23.813965"
       cy="691.32941"
       cx="705.63379"
       id="path4103"
       style="fill:none;stroke:#bcd35f;stroke-width:11.95849419;stroke-linecap:butt;stroke-linejoin:round;stroke-miterlimit:4;stroke-dasharray:none;stroke-opacity:1" />
    <circle
       r="21.905233"
       cy="973.11084"
       cx="743.88519"
       style="fill:none;stroke:#1c1c24;stroke-width:11;stroke-linecap:butt;stroke-linejoin:round;stroke-miterlimit:4;stroke-dasharray:none;stroke-opacity:1"
       id="path4097" />
    <circle
       r="23.813965"
       cy="693.71741"
       cx="273.40979"
       style="fill:none;stroke:#1c1c24;stroke-width:11.95849419;stroke-linecap:butt;stroke-linejoin:round;stroke-miterlimit:4;stroke-dasharray:none;stroke-opacity:1"
       id="path4101" />
  </g>
</svg>
