<?xml version="1.0" encoding="UTF-8" standalone="no"?>
<!-- Created with Inkscape (http://www.inkscape.org/) -->

<svg
   xmlns:dc="http://purl.org/dc/elements/1.1/"
   xmlns:cc="http://creativecommons.org/ns#"
   xmlns:rdf="http://www.w3.org/1999/02/22-rdf-syntax-ns#"
   xmlns:svg="http://www.w3.org/2000/svg"
   xmlns="http://www.w3.org/2000/svg"
   xmlns:sodipodi="http://sodipodi.sourceforge.net/DTD/sodipodi-0.dtd"
   xmlns:inkscape="http://www.inkscape.org/namespaces/inkscape"
   width="500"
   height="500"
   viewBox="0 0 132.29166 132.29167"
   version="1.1"
   id="svg8"
   inkscape:version="0.92.2 2405546, 2018-03-11"
   sodipodi:docname="vr-color.svg">
  <defs
     id="defs2">
    <inkscape:path-effect
       effect="bspline"
       id="path-effect829"
       is_visible="true"
       weight="33.333333"
       steps="2"
       helper_size="0"
       apply_no_weight="true"
       apply_with_weight="true"
       only_selected="false" />
  </defs>
  <sodipodi:namedview
     id="base"
     pagecolor="#ffffff"
     bordercolor="#666666"
     borderopacity="1.0"
     inkscape:pageopacity="0.0"
     inkscape:pageshadow="2"
     inkscape:zoom="0.49497475"
     inkscape:cx="176.32911"
     inkscape:cy="276.31622"
     inkscape:document-units="mm"
     inkscape:current-layer="layer1"
     showgrid="false"
     units="px"
     inkscape:snap-global="false"
     inkscape:window-width="1366"
     inkscape:window-height="708"
     inkscape:window-x="0"
     inkscape:window-y="0"
     inkscape:window-maximized="1" />
  <metadata
     id="metadata5">
    <rdf:RDF>
      <cc:Work
         rdf:about="">
        <dc:format>image/svg+xml</dc:format>
        <dc:type
           rdf:resource="http://purl.org/dc/dcmitype/StillImage" />
        <dc:title></dc:title>
      </cc:Work>
    </rdf:RDF>
  </metadata>
  <g
     inkscape:label="Layer 1"
     inkscape:groupmode="layer"
     id="layer1"
     transform="translate(0,-164.70832)">
    <rect
       style="opacity:1;fill:#333333;fill-opacity:1;fill-rule:nonzero;stroke:#000000;stroke-width:2.64583325;stroke-miterlimit:4;stroke-dasharray:none;stroke-dashoffset:0;stroke-opacity:1"
       id="rect838"
       width="96.383926"
       height="43.307961"
       x="16.630953"
       y="186.0343"
       ry="5.5656681" />
    <rect
       ry="4.5683274"
       y="189.91458"
       x="21.539663"
       height="35.547386"
       width="78.344238"
       id="rect840"
       style="opacity:1;fill:#ffdd55;fill-opacity:1;fill-rule:nonzero;stroke:#000000;stroke-width:1.32291663;stroke-miterlimit:4;stroke-dasharray:none;stroke-dashoffset:0;stroke-opacity:1" />
    <circle
       style="opacity:1;fill:#ffffff;fill-opacity:1;fill-rule:nonzero;stroke:#000000;stroke-width:1.32291663;stroke-miterlimit:4;stroke-dasharray:none;stroke-dashoffset:0;stroke-opacity:1"
       id="path842"
       cx="105.83334"
       cy="207.68828"
       r="3.4017856" />
    <path
       style="opacity:1;fill:#784421;fill-opacity:1;fill-rule:nonzero;stroke:#000000;stroke-width:2.64583325;stroke-miterlimit:4;stroke-dasharray:none;stroke-dashoffset:0;stroke-opacity:1"
       d="m 11.272475,217.62513 c -3.9415722,0 -7.1148108,3.17325 -7.1148108,7.11482 v 42.0889 c 0,3.94157 3.1734273,7.15339 7.1148108,7.11481 l 38.620382,-0.37797 c 0,0 2.987428,-0.25384 4.098678,-1.13393 0.957316,-0.75818 1.759728,-2.11848 1.759728,-3.21324 0,-15.55191 2.417035,-28.53713 9.827678,-28.53713 7.410643,0 9.54368,13.08008 9.54368,28.63199 0,0.70608 0.08729,2.34401 0.834411,3.11838 0.895974,0.92865 3.701449,1.13393 3.701449,1.13393 l 40.604759,0.37797 c 3.9414,0.0367 7.11481,-3.17324 7.11481,-7.11481 v -42.0889 c 0,-3.94157 -3.17324,-7.11482 -7.11481,-7.11482 z"
       id="rect815"
       inkscape:connector-curvature="0"
       sodipodi:nodetypes="sssscasssacsssss" />
    <circle
       style="opacity:1;fill:#ffffff;fill-opacity:1;fill-rule:nonzero;stroke:#000000;stroke-width:2.64583325;stroke-miterlimit:4;stroke-dasharray:none;stroke-dashoffset:0;stroke-opacity:1"
       id="path823"
       cx="30.238096"
       cy="240.49252"
       r="15.497024" />
    <path
       style="opacity:0.36199999;fill:#000000;fill-opacity:1;fill-rule:nonzero;stroke:#000000;stroke-width:5;stroke-miterlimit:4;stroke-dasharray:none;stroke-dashoffset:0;stroke-opacity:1"
       d="M 250 200 L 250 287.25 C 276.27737 289.72843 283.92773 338.10742 283.92773 395.35742 C 283.92773 398.02607 284.25827 404.21778 287.08203 407.14453 C 290.46839 410.65439 301.07227 411.42969 301.07227 411.42969 L 454.53906 412.85742 C 469.43569 412.99613 481.42969 400.86407 481.42969 385.9668 L 481.42969 226.89062 C 481.42969 211.99335 469.43633 200 454.53906 200 L 250 200 z "
       transform="matrix(0.26458333,0,0,0.26458333,0,164.70832)"
       id="rect2203" />
    <circle
       r="15.497024"
       cy="239.73657"
       cx="99.029762"
       id="circle825"
       style="opacity:1;fill:#ffffff;fill-opacity:1;fill-rule:nonzero;stroke:#000000;stroke-width:2.64583325;stroke-miterlimit:4;stroke-dasharray:none;stroke-dashoffset:0;stroke-opacity:1" />
  </g>
</svg>
