<?xml version="1.0" encoding="UTF-8" standalone="no"?>
<svg
   xmlns:dc="http://purl.org/dc/elements/1.1/"
   xmlns:cc="http://creativecommons.org/ns#"
   xmlns:rdf="http://www.w3.org/1999/02/22-rdf-syntax-ns#"
   xmlns:svg="http://www.w3.org/2000/svg"
   xmlns="http://www.w3.org/2000/svg"
   xmlns:sodipodi="http://sodipodi.sourceforge.net/DTD/sodipodi-0.dtd"
   xmlns:inkscape="http://www.inkscape.org/namespaces/inkscape"
   xml:space="preserve"
   style="enable-background:new 0 0 49.652 49.652;"
   viewBox="0 0 49.652 49.652"
   height="512px"
   width="512px"
   y="0px"
   x="0px"
   id="Capa_1"
   version="1.1"
   sodipodi:docname="twitter-color.svg"
   inkscape:version="0.92.3 (2405546, 2018-03-11)"><sodipodi:namedview
   pagecolor="#ffffff"
   bordercolor="#666666"
   borderopacity="1"
   objecttolerance="10"
   gridtolerance="10"
   guidetolerance="10"
   inkscape:pageopacity="0"
   inkscape:pageshadow="2"
   inkscape:window-width="725"
   inkscape:window-height="480"
   id="namedview23"
   showgrid="false"
   inkscape:zoom="0.4609375"
   inkscape:cx="256"
   inkscape:cy="256"
   inkscape:window-x="0"
   inkscape:window-y="25"
   inkscape:window-maximized="0"
   inkscape:current-layer="g6" /><metadata
   id="metadata43"><rdf:RDF><cc:Work
       rdf:about=""><dc:format>image/svg+xml</dc:format><dc:type
         rdf:resource="http://purl.org/dc/dcmitype/StillImage" /><dc:title /></cc:Work></rdf:RDF></metadata><defs
   id="defs41" />
<g
   id="g6">
	<g
   style="fill:#293d3d;fill-opacity:1"
   id="g4">
		<path
   style="fill:#293d3d;fill-opacity:1"
   id="path2"
   fill="#FFFFFF"
   d="M24.826,0C11.137,0,0,11.137,0,24.826c0,13.688,11.137,24.826,24.826,24.826c13.688,0,24.826-11.138,24.826-24.826    C49.652,11.137,38.516,0,24.826,0z M35.901,19.144c0.011,0.246,0.017,0.494,0.017,0.742c0,7.551-5.746,16.255-16.259,16.255    c-3.227,0-6.231-0.943-8.759-2.565c0.447,0.053,0.902,0.08,1.363,0.08c2.678,0,5.141-0.914,7.097-2.446    c-2.5-0.046-4.611-1.698-5.338-3.969c0.348,0.066,0.707,0.103,1.074,0.103c0.521,0,1.027-0.068,1.506-0.199    c-2.614-0.524-4.583-2.833-4.583-5.603c0-0.024,0-0.049,0.001-0.072c0.77,0.427,1.651,0.685,2.587,0.714    c-1.532-1.023-2.541-2.773-2.541-4.755c0-1.048,0.281-2.03,0.773-2.874c2.817,3.458,7.029,5.732,11.777,5.972    c-0.098-0.419-0.147-0.854-0.147-1.303c0-3.155,2.558-5.714,5.713-5.714c1.644,0,3.127,0.694,4.171,1.804    c1.303-0.256,2.523-0.73,3.63-1.387c-0.43,1.335-1.333,2.454-2.516,3.162c1.157-0.138,2.261-0.444,3.282-0.899    C37.987,17.334,37.018,18.341,35.901,19.144z" />
	</g>
</g>
<g
   id="g8">
</g>
<g
   id="g10">
</g>
<g
   id="g12">
</g>
<g
   id="g14">
</g>
<g
   id="g16">
</g>
<g
   id="g18">
</g>
<g
   id="g20">
</g>
<g
   id="g22">
</g>
<g
   id="g24">
</g>
<g
   id="g26">
</g>
<g
   id="g28">
</g>
<g
   id="g30">
</g>
<g
   id="g32">
</g>
<g
   id="g34">
</g>
<g
   id="g36">
</g>
</svg>